/* XPM */
static char * stick_toggled_prelight_xpm[] = {
"16 16 3 1",
" 	c None",
".	c #2D2D2D",
"+	c #D64937 s active_color_1",
"................",
"................",
"................",
"................",
".......++.......",
".....++++++.....",
".....++..++.....",
"....++....++....",
"....++....++....",
".....++..++.....",
".....++++++.....",
".......++.......",
"................",
"................",
"................",
"................"};

