/* XPM */
static char * title_3_active_xpm[] = {
"2 24 3 1",
" 	c None",
".	c #4F5B66",
"+	c #2B303B",
"..",
"++",
"++",
"++",
"++",
"++",
"++",
"++",
"++",
"++",
"++",
"++",
"++",
"++",
"++",
"++",
"++",
"++",
"++",
"++",
"++",
"++",
"++",
"++"};
